<svg width="30" height="30" viewBox="0 0 30 30" fill="none" xmlns="http://www.w3.org/2000/svg">
<path fill-rule="evenodd" clip-rule="evenodd" d="M15 8.75C11.5482 8.75 8.75 11.5482 8.75 15C8.75 18.4517 11.5482 21.25 15 21.25C18.4517 21.25 21.25 18.4517 21.25 15C21.25 11.5482 18.4517 8.75 15 8.75ZM11.25 15C11.25 17.0711 12.9289 18.75 15 18.75C17.0711 18.75 18.75 17.0711 18.75 15C18.75 12.9289 17.0711 11.25 15 11.25C12.9289 11.25 11.25 12.9289 11.25 15Z" fill="white"/>
<path d="M22.5 6.25C21.8096 6.25 21.25 6.80965 21.25 7.5C21.25 8.19035 21.8096 8.75 22.5 8.75C23.1904 8.75 23.75 8.19035 23.75 7.5C23.75 6.80965 23.1904 6.25 22.5 6.25Z" fill="white"/>
<path fill-rule="evenodd" clip-rule="evenodd" d="M6.25 1.25C3.48857 1.25 1.25 3.48857 1.25 6.25V23.75C1.25 26.5114 3.48857 28.75 6.25 28.75H23.75C26.5114 28.75 28.75 26.5114 28.75 23.75V6.25C28.75 3.48857 26.5114 1.25 23.75 1.25H6.25ZM23.75 3.75H6.25C4.86929 3.75 3.75 4.86929 3.75 6.25V23.75C3.75 25.1308 4.86929 26.25 6.25 26.25H23.75C25.1308 26.25 26.25 25.1308 26.25 23.75V6.25C26.25 4.86929 25.1308 3.75 23.75 3.75Z" fill="white"/>
</svg>