<svg width="30" height="30" viewBox="0 0 30 30" fill="none" xmlns="http://www.w3.org/2000/svg">
<path d="M9.06625 23.1175L9.97125 23.6462C11.4974 24.5363 13.2332 25.0036 15 25C16.9778 25 18.9112 24.4135 20.5557 23.3147C22.2002 22.2159 23.4819 20.6541 24.2388 18.8268C24.9957 16.9996 25.1937 14.9889 24.8079 13.0491C24.422 11.1093 23.4696 9.32746 22.0711 7.92893C20.6725 6.53041 18.8907 5.578 16.9509 5.19215C15.0111 4.8063 13.0004 5.00433 11.1732 5.7612C9.34591 6.51808 7.78412 7.79981 6.68531 9.4443C5.58649 11.0888 5 13.0222 5 15C5 16.795 5.47125 18.5163 6.355 20.03L6.8825 20.935L6.06625 23.9363L9.06625 23.1175ZM2.505 27.5L4.195 21.29C3.08142 19.3811 2.49637 17.21 2.5 15C2.5 8.09625 8.09625 2.5 15 2.5C21.9037 2.5 27.5 8.09625 27.5 15C27.5 21.9037 21.9037 27.5 15 27.5C12.791 27.5036 10.6208 26.919 8.7125 25.8063L2.505 27.5ZM10.4888 9.135C10.6562 9.1225 10.825 9.1225 10.9925 9.13C11.06 9.135 11.1275 9.1425 11.195 9.15C11.3938 9.1725 11.6125 9.29375 11.6863 9.46125C12.0588 10.3062 12.4213 11.1575 12.7713 12.0113C12.8488 12.2013 12.8025 12.445 12.655 12.6825C12.5536 12.8431 12.4438 12.9983 12.3263 13.1475C12.185 13.3287 11.8813 13.6613 11.8813 13.6613C11.8813 13.6613 11.7575 13.8088 11.805 13.9925C11.8225 14.0625 11.88 14.1638 11.9325 14.2488L12.0063 14.3675C12.3263 14.9013 12.7563 15.4425 13.2812 15.9525C13.4313 16.0975 13.5775 16.2463 13.735 16.385C14.32 16.9012 14.9825 17.3225 15.6975 17.635L15.7037 17.6375C15.81 17.6837 15.8637 17.7088 16.0187 17.775C16.0962 17.8075 16.1762 17.8363 16.2575 17.8575C16.3415 17.8789 16.4299 17.8749 16.5116 17.8459C16.5932 17.817 16.6645 17.7645 16.7163 17.695C17.6213 16.5988 17.7037 16.5275 17.7112 16.5275V16.53C17.7741 16.4714 17.8488 16.4269 17.9303 16.3995C18.0118 16.3721 18.0982 16.3625 18.1838 16.3713C18.2587 16.3763 18.335 16.39 18.405 16.4213C19.0688 16.725 20.155 17.1987 20.155 17.1987L20.8825 17.525C21.005 17.5838 21.1162 17.7225 21.12 17.8562C21.125 17.94 21.1325 18.075 21.1037 18.3225C21.0637 18.6462 20.9662 19.035 20.8687 19.2388C20.802 19.3778 20.7134 19.5052 20.6063 19.6162C20.4801 19.7487 20.342 19.8692 20.1938 19.9762C20.1425 20.0148 20.0904 20.0523 20.0375 20.0887C19.882 20.1874 19.7223 20.2791 19.5588 20.3638C19.2369 20.5347 18.8815 20.6328 18.5175 20.6512C18.2863 20.6637 18.055 20.6812 17.8225 20.6688C17.8125 20.6688 17.1125 20.56 17.1125 20.56C15.3353 20.0925 13.6917 19.2168 12.3125 18.0025C12.03 17.7538 11.7688 17.4862 11.5013 17.22C10.3888 16.1138 9.54875 14.92 9.03875 13.7925C8.77771 13.2391 8.63671 12.6368 8.625 12.025C8.61985 11.2661 8.86793 10.5271 9.33 9.925C9.42125 9.8075 9.5075 9.685 9.65625 9.54375C9.815 9.39375 9.915 9.31375 10.0238 9.25875C10.1683 9.18629 10.3261 9.14377 10.4875 9.13375L10.4888 9.135Z" fill="white"/>
</svg>